PathFileType	4	(X/Y/Z)	ptf.trc
DataRate	CameraRate	NumFrames	NumMarkers	Units	OrigDataRate	OrigDataStartFrame	OrigNumFrames
60.00	60.00	4	39	m	60.00	1	151
Frame#	Time	Sternum				R.Acromium				L.Acromium				Top.Head				R.ASIS				L.ASIS				V.Sacral				R.Thigh.Upper				R.Thigh.Front				R.Thigh.Rear				R.Knee.Lat				R.Knee.Med				R.Shank.Upper				R.Shank.Front				R.Shank.Rear				R.Ankle.Lat				R.Ankle.Med				R.Heel				R.Midfoot.Sup				R.Midfoot.Lat				R.Toe.Lat				R.Toe.Med				R.Toe.Tip				L.Thigh.Upper				L.Thigh.Front				L.Thigh.Rear				L.Knee.Lat				L.Knee.Med				L.Shank.Upper				L.Shank.Front				L.Shank.Rear				L.Ankle.Lat				L.Ankle.Med				L.Heel				L.Midfoot.Sup				L.Midfoot.Lat				L.Toe.Lat				L.Toe.Med				L.Toe.Tip				
		X1	Y1	Z1		X2	Y2	Z2		X3	Y3	Z3		X4	Y4	Z4		X5	Y5	Z5		X6	Y6	Z6		X7	Y7	Z7		X8	Y8	Z8		X9	Y9	Z9		X10	Y10	Z10		X11	Y11	Z11		X12	Y12	Z12		X13	Y13	Z13		X14	Y14	Z14		X15	Y15	Z15		X16	Y16	Z16		X17	Y17	Z17		X18	Y18	Z18		X19	Y19	Z19		X20	Y20	Z20		X21	Y21	Z21		X22	Y22	Z22		X23	Y23	Z23		X24	Y24	Z24		X25	Y25	Z25		X26	Y26	Z26		X27	Y27	Z27		X28	Y28	Z28		X29	Y29	Z29		X30	Y30	Z30		X31	Y31	Z31		X32	Y32	Z32		X33	Y33	Z33		X34	Y34	Z34		X35	Y35	Z35		X36	Y36	Z36		X37	Y37	Z37		X38	Y38	Z38		X39	Y39	Z39		
1	0	0.678541	1.36272	0.0272912		0.578938	1.50857	0.190788		0.595279	1.51636	-0.149601		0.735399	1.74831	0.0334032		0.616748	1.06477	0.169431		0.645597	1.03427	-0.0893981		0.433299	1.03773	0.031559		0.522738	0.720377	0.211229		0.565036	0.647672	0.115951		0.480102	0.607168	0.197774		0.41945	0.536091	0.17552		0.417887	0.523062	0.0537814		0.362019	0.464928	0.18247		0.416873	0.401964	0.129157		0.339926	0.380968	0.189929		0.221845	0.12204	0.157467		0.238181	0.132974	0.06887		0.151417	0.111782	0.103568		0.295554	0.0988899	0.0720341		0.28334	0.0737435	0.177632		0.366714	0.033242	0.186899		0.374874	0.0524402	0.0796635		0.433828	0.0397514	0.112607		0.651604	0.753586	-0.144235		0.751652	0.751433	-0.0844557		0.689827	0.651205	-0.129597		0.7218	0.522705	-0.112304		0.742333	0.530081	0.00188557		0.746547	0.446836	-0.128455		0.813564	0.416904	-0.0823591		0.743003	0.399974	-0.136506		0.868662	0.111265	-0.109584		0.880377	0.138989	-0.0201443		0.807122	0.072071	-0.0520122		0.967606	0.136757	-0.0303685		0.954318	0.11278	-0.126873		1.02208	0.110485	-0.134287		1.03396	0.134635	-0.034279		1.08109	0.147239	-0.0603856		
2	0.0166667	0.67954	1.36293	0.0238131		0.57969	1.50945	0.186556		0.596081	1.51554	-0.153865		0.735821	1.74862	0.0279916		0.617493	1.06264	0.167514		0.646841	1.03353	-0.0914195		0.434216	1.03825	0.0289196		0.522159	0.719596	0.209027		0.564043	0.646504	0.113864		0.479216	0.60645	0.196018		0.418338	0.535454	0.174129		0.41644	0.522065	0.0524338		0.359661	0.465909	0.181493		0.411931	0.400766	0.128202		0.334478	0.382858	0.189319		0.206698	0.128412	0.158167		0.223105	0.138436	0.0694756		0.135781	0.120306	0.104518		0.279307	0.102473	0.0726062		0.266588	0.078167	0.178341		0.348589	0.0349349	0.187523		0.357052	0.053425	0.0801869		0.415651	0.0389006	0.113006		0.653737	0.753877	-0.145909		0.753229	0.752417	-0.0851888		0.692417	0.651748	-0.130723		0.724974	0.523468	-0.112893		0.744391	0.531168	0.00146993		0.747942	0.446985	-0.128586		0.813439	0.414918	-0.0817472		0.742857	0.400245	-0.136522		0.858195	0.107464	-0.107458		0.870005	0.135083	-0.0179984		0.793809	0.0722701	-0.0506254		0.957481	0.127564	-0.0269225		0.944212	0.103846	-0.123494		1.01182	0.0975416	-0.12989		1.02365	0.121534	-0.029837		1.07181	0.131202	-0.0553033		
3	0.0333333	0.681065	1.36319	0.0199206		0.581132	1.51032	0.182064		0.597099	1.51477	-0.158402		0.736614	1.74901	0.0221382		0.619548	1.06086	0.164883		0.64837	1.03314	-0.0942631		0.435934	1.03859	0.0263779		0.522584	0.718989	0.206558		0.563819	0.645399	0.111494		0.479075	0.606003	0.194051		0.417797	0.53522	0.172587		0.415441	0.521451	0.0509427		0.357905	0.467348	0.180416		0.407517	0.400137	0.127153		0.329719	0.385308	0.188655		0.192538	0.135625	0.158974		0.208924	0.144723	0.0701788		0.121123	0.130135	0.10567		0.263693	0.106589	0.0731787		0.250516	0.0831328	0.179049		0.330801	0.0367486	0.188009		0.33949	0.0545552	0.0805759		0.397625	0.0378482	0.113181		0.655914	0.753929	-0.148		0.755013	0.753016	-0.0866293		0.694854	0.651987	-0.132235		0.727748	0.523882	-0.113782		0.746391	0.532016	0.000680396		0.748847	0.446844	-0.129012		0.812858	0.412708	-0.081584		0.742177	0.400276	-0.136784		0.846955	0.10376	-0.105677		0.859121	0.131348	-0.0162553		0.780195	0.072637	-0.0494007		0.946471	0.118693	-0.0241226		0.932962	0.0951396	-0.120701		1.00017	0.0849615	-0.126275		1.01222	0.108893	-0.0262332		1.06113	0.115643	-0.0511946		
4	0.05	0.682829	1.36352	0.0159493		0.582128	1.51181	0.176553		0.599263	1.51353	-0.163882		0.737821	1.74942	0.0152371		0.620994	1.05943	0.162817		0.650666	1.0331	-0.0963765		0.437797	1.03901	0.0234765		0.524129	0.718519	0.204158		0.56523	0.644725	0.109195		0.48076	0.605433	0.192081		0.419534	0.534498	0.170974		0.416885	0.520384	0.049375		0.358629	0.468451	0.179215		0.405184	0.399041	0.126013		0.327068	0.38769	0.187851		0.179454	0.143865	0.159567		0.195869	0.151964	0.0706804		0.107648	0.141583	0.106588		0.248815	0.111302	0.0735518		0.23502	0.0887618	0.179543		0.313084	0.0386917	0.188288		0.322124	0.055795	0.0807689		0.379556	0.0364676	0.113171		0.658617	0.754299	-0.150124		0.757374	0.753837	-0.0881991		0.697801	0.652518	-0.133931		0.731008	0.524559	-0.115028		0.748984	0.532989	-0.000480534		0.750116	0.447061	-0.129924		0.812511	0.410692	-0.0820045		0.741745	0.400752	-0.137599		0.835103	0.100606	-0.104979		0.847761	0.128	-0.0155661		0.766405	0.0732604	-0.0492062		0.934629	0.110667	-0.0225709		0.920781	0.0874154	-0.119175		0.987413	0.0737096	-0.124082		0.999787	0.0974316	-0.0240307		1.04921	0.101499	-0.0485636		
